<svg version="1.1" xmlns="http://www.w3.org/2000/svg" viewBox="0 0 250 250"><desc>Created with Snap</desc><defs></defs><g transform="matrix(0.0228,0,0,0.0228,8.8739,131.082)"><g transform="matrix(71.8945,0,0,71.8945,7967.7,-1417.0625)"><g display="none"><rect x="-69.333" y="-18.667" display="inline" fill="#603f83" width="473.333" height="236" style=""></rect></g><g display="none"><g display="inline"><g><polygon fill="#603f83" points="32,15.976 15.976,32 0,16.024    " style=""></polygon></g><g><polygon points="23.347,15.989 15.989,23.347 8.653,16.011    " fill="#603f83" style=""></polygon></g><g><polygon fill="#603f83" points="0,16.024 16.024,0 32,15.976    " style=""></polygon></g><g><polygon fill="#603f83" points="8.653,16.011 16.011,8.653 23.347,15.989    " style=""></polygon></g></g></g><g display="none"><g display="inline"><path fill="#603f83" d="M16,1c8.271,0,15,6.729,15,15s-6.729,15-15,15S1,24.271,1,16S7.729,1,16,1 M16,0C7.163,0,0,7.163,0,16    s7.163,16,16,16s16-7.163,16-16S24.837,0,16,0L16,0z" style=""></path></g><g display="inline"><path fill="#603f83" d="M13.034,6.153l2.259,2.259L16,9.119l0.707-0.707l2.259-2.259l0.744,0.744l-2.259,2.259l-0.707,0.707    l0.707,0.707l2.259,2.259l-0.744,0.744l-2.259-2.259L16,10.607l-0.707,0.707l-2.259,2.259l-0.744-0.744l2.259-2.259l0.707-0.707    l-0.707-0.707L12.29,6.897L13.034,6.153 M18.966,4.738L16,7.705l-2.966-2.966l-2.158,2.158l2.966,2.966l-2.966,2.966l2.158,2.158    L16,12.021l2.966,2.966l2.158-2.158l-2.966-2.966l2.966-2.966L18.966,4.738L18.966,4.738z" style=""></path></g><g display="inline"><path fill="#603f83" d="M13.034,18.427l2.259,2.259L16,21.393l0.707-0.707l2.259-2.259l0.744,0.744l-2.259,2.259l-0.707,0.707    l0.707,0.707l2.259,2.259l-0.744,0.744l-2.259-2.259L16,22.881l-0.707,0.707l-2.259,2.259l-0.744-0.744l2.259-2.259l0.707-0.707    l-0.707-0.707l-2.259-2.259L13.034,18.427 M18.966,17.013L16,19.979l-2.966-2.966l-2.158,2.158l2.966,2.966l-2.966,2.966    l2.158,2.158L16,24.295l2.966,2.966l2.158-2.158l-2.966-2.966l2.966-2.966L18.966,17.013L18.966,17.013z" style=""></path></g></g><g display="none"><g display="inline"><rect x="2" y="2" fill="#603f83" width="28" height="28" style=""></rect></g><g display="inline"><g><path fill="#603f83" d="M16,31.5C7.453,31.5,0.5,24.547,0.5,16S7.453,0.5,16,0.5S31.5,7.453,31.5,16S24.547,31.5,16,31.5z" style=""></path></g><g><g><path d="M16,1c8.271,0,15,6.729,15,15s-6.729,15-15,15S1,24.271,1,16S7.729,1,16,1 M16,0C7.163,0,0,7.163,0,16s7.163,16,16,16      s16-7.163,16-16S24.837,0,16,0L16,0z" fill="#603f83" style=""></path></g></g></g><g display="inline"><g><polygon fill="#603f83" points="16,11.314 13.034,14.28 11.582,12.829 14.549,9.863 11.582,6.896 13.034,5.445 16,8.412      18.966,5.445 20.418,6.896 17.451,9.863 20.418,12.829 18.966,14.28    " style=""></polygon></g><g><path d="M13.034,6.153l2.259,2.259L16,9.119l0.707-0.707l2.259-2.259l0.744,0.744l-2.259,2.259l-0.707,0.707l0.707,0.707     l2.259,2.259l-0.744,0.744l-2.259-2.259L16,10.607l-0.707,0.707l-2.259,2.259l-0.744-0.744l2.259-2.259l0.707-0.707l-0.707-0.707     L12.29,6.897L13.034,6.153 M18.966,4.738L16,7.705l-2.966-2.966l-2.158,2.158l2.966,2.966l-2.966,2.966l2.158,2.158L16,12.021     l2.966,2.966l2.158-2.158l-2.966-2.966l2.966-2.966L18.966,4.738L18.966,4.738z" fill="#603f83" style=""></path></g></g><g display="inline"><g><polygon fill="#603f83" points="16,23.589 13.034,26.555 11.582,25.104 14.549,22.137 11.582,19.171 13.034,17.72 16,20.686      18.966,17.72 20.418,19.171 17.451,22.137 20.418,25.104 18.966,26.555    " style=""></polygon></g><g><path d="M13.034,18.427l2.259,2.259L16,21.393l0.707-0.707l2.259-2.259l0.744,0.744l-2.259,2.259l-0.707,0.707l0.707,0.707     l2.259,2.259l-0.744,0.744l-2.259-2.259L16,22.881l-0.707,0.707l-2.259,2.259l-0.744-0.744l2.259-2.259l0.707-0.707l-0.707-0.707     l-2.259-2.259L13.034,18.427 M18.966,17.013L16,19.979l-2.966-2.966l-2.158,2.158l2.966,2.966l-2.966,2.966l2.158,2.158     L16,24.295l2.966,2.966l2.158-2.158l-2.966-2.966l2.966-2.966L18.966,17.013L18.966,17.013z" fill="#603f83" style=""></path></g></g></g><g><g><path d="M0,16.024L15.976,32L32,15.976L16.024,0L0,16.024z M15.989,23.347l-7.336-7.336l14.694-0.022L15.989,23.347z" fill="#603f83" style=""></path></g></g><desc>Created with Snap</desc><defs></defs></g><g><g transform="matrix(0.5,0,0,-0.5,0,0)"><path d="M1024 145L944 422L567 422Q525 290 476 193Q428 96 369 32Q310 -32 239 -63Q169 -94 82 -94Q34 -94 -11 -86Q-55 -77 -89 -62Q-123 -47 -144 -27Q-164 -6 -164 18Q-164 36 -159 54Q-153 73 -143 88Q-133 104 -119 113Q-104 123 -86 123Q-70 123 -58 101Q-46 79 -28 52Q-9 26 20 4Q49 -18 100 -18Q152 -18 199 7Q246 32 289 85Q333 139 373 222Q413 305 451 422L215 422L215 510L477 510Q510 622 541 736Q573 850 601 955Q629 1060 651 1151Q673 1243 688 1311Q668 1367 633 1386Q599 1405 541 1405Q487 1405 429 1388Q372 1372 325 1341Q278 1311 247 1266Q217 1222 217 1167Q217 1135 225 1116Q234 1097 245 1087Q257 1078 268 1075Q279 1073 285 1073Q309 1073 325 1081Q342 1090 354 1099Q367 1109 379 1117Q391 1126 406 1126Q417 1126 430 1120Q444 1115 455 1103Q467 1091 475 1071Q483 1052 483 1024Q483 984 467 955Q452 926 427 906Q403 887 371 877Q340 868 309 868Q261 868 222 885Q184 903 157 933Q130 963 116 1003Q102 1043 102 1087Q102 1153 124 1208Q146 1264 185 1309Q224 1355 277 1389Q330 1424 391 1447Q453 1471 520 1483Q587 1495 655 1495Q751 1495 817 1479Q884 1464 929 1433Q974 1403 1001 1356Q1029 1310 1047 1249L1262 510L1479 510L1479 422L1286 422L1364 160Q1368 145 1372 132Q1376 119 1381 109Q1387 100 1395 94Q1404 88 1417 88Q1445 88 1469 97Q1493 107 1511 117L1528 80Q1510 67 1482 50Q1455 34 1419 19Q1384 4 1341 -6Q1298 -16 1249 -16Q1181 -16 1139 1Q1098 18 1074 43Q1051 68 1040 96Q1030 124 1024 145ZM920 510L750 1098Q709 931 670 784Q632 637 594 510L920 510ZM1962 1391L1962 88Q1962 75 1957 57Q1953 39 1936 23Q1920 7 1888 -5Q1857 -16 1804 -16Q1751 -16 1721 -4Q1691 9 1676 26Q1662 43 1658 61Q1655 79 1655 90L1655 1380Q1655 1409 1641 1430Q1628 1452 1596 1452Q1579 1452 1566 1446Q1554 1441 1540 1430L1520 1454Q1543 1473 1571 1491Q1599 1510 1632 1524Q1666 1538 1704 1547Q1742 1556 1784 1556Q1849 1556 1885 1538Q1921 1521 1938 1495Q1955 1470 1958 1441Q1962 1413 1962 1391ZM2171 629Q2171 731 2206 807Q2242 884 2302 935Q2362 987 2441 1012Q2520 1038 2607 1038Q2694 1038 2772 1015Q2850 992 2910 944Q2929 973 2941 1005Q2953 1037 2953 1069Q2953 1111 2930 1136Q2908 1161 2873 1161L2873 1190Q2895 1197 2912 1202Q2929 1208 2943 1211Q2957 1214 2971 1215Q2985 1217 3002 1217Q3049 1217 3074 1188Q3099 1159 3099 1108Q3099 1078 3085 1048Q3071 1019 3050 992Q3029 965 3003 941Q2978 917 2955 899Q2997 851 3020 787Q3043 723 3043 641Q3043 538 3007 459Q2972 380 2912 326Q2852 272 2773 244Q2694 217 2607 217Q2556 217 2507 226Q2458 235 2415 252Q2399 240 2387 222Q2376 204 2376 182Q2376 145 2408 127Q2440 109 2493 101Q2546 93 2613 91Q2680 89 2750 84Q2821 80 2888 67Q2955 55 3008 26Q3061 -2 3093 -51Q3125 -100 3125 -178Q3125 -235 3101 -281Q3077 -326 3036 -361Q2996 -395 2942 -420Q2889 -444 2829 -460Q2770 -475 2708 -482Q2647 -489 2591 -489Q2489 -489 2407 -479Q2326 -468 2269 -446Q2212 -424 2181 -389Q2150 -354 2150 -305Q2150 -270 2166 -241Q2182 -211 2208 -187Q2235 -162 2268 -143Q2301 -123 2335 -106Q2285 -85 2251 -43Q2218 0 2218 70Q2218 107 2231 138Q2244 170 2264 196Q2285 223 2309 244Q2334 266 2357 281Q2316 305 2281 339Q2247 374 2222 417Q2198 461 2184 514Q2171 567 2171 629ZM2742 637Q2742 695 2736 750Q2730 805 2715 848Q2700 891 2674 917Q2648 944 2607 944Q2566 944 2540 916Q2514 889 2499 844Q2484 800 2478 743Q2472 687 2472 629Q2472 570 2478 513Q2484 456 2499 411Q2514 366 2540 338Q2566 311 2607 311Q2648 311 2674 340Q2700 369 2715 415Q2730 462 2736 520Q2742 578 2742 637ZM2894 -258Q2894 -226 2869 -206Q2844 -185 2803 -173Q2763 -160 2711 -154Q2660 -147 2607 -144Q2554 -140 2504 -137Q2454 -134 2417 -129Q2396 -144 2376 -162Q2357 -179 2342 -199Q2328 -218 2319 -240Q2310 -261 2310 -283Q2310 -321 2332 -347Q2354 -372 2391 -387Q2429 -402 2478 -408Q2528 -414 2583 -414Q2656 -414 2714 -402Q2772 -389 2812 -368Q2852 -346 2873 -318Q2894 -290 2894 -258ZM3194 512Q3194 643 3232 741Q3270 840 3333 906Q3397 972 3481 1005Q3565 1038 3657 1038Q3749 1038 3833 1007Q3917 977 3980 914Q4044 851 4082 754Q4120 658 4120 526Q4120 395 4082 294Q4044 193 3980 124Q3917 55 3833 19Q3749 -16 3657 -16Q3565 -16 3481 17Q3397 51 3333 117Q3270 183 3232 282Q3194 381 3194 512ZM3809 522Q3809 602 3803 676Q3798 751 3782 809Q3766 867 3736 901Q3706 936 3657 936Q3608 936 3578 899Q3548 863 3532 803Q3516 744 3511 668Q3506 592 3506 512Q3506 432 3511 355Q3516 279 3532 219Q3548 159 3578 122Q3608 86 3657 86Q3706 86 3736 124Q3766 162 3782 224Q3798 286 3803 364Q3809 442 3809 522ZM5411 1409Q5384 1409 5348 1398Q5312 1387 5274 1356Q5237 1326 5201 1271Q5165 1216 5136 1128Q5108 1041 5090 916Q5073 791 5073 621Q5073 459 5090 340Q5108 221 5137 137Q5167 54 5205 1Q5243 -52 5285 -82Q5327 -111 5369 -122Q5411 -133 5448 -133Q5487 -133 5527 -123Q5567 -113 5605 -94Q5644 -75 5679 -48Q5715 -21 5745 14L5790 -31Q5760 -68 5718 -107Q5676 -145 5620 -177Q5565 -208 5496 -228Q5427 -248 5343 -248Q5212 -248 5099 -198Q4987 -148 4903 -43Q4820 63 4772 228Q4725 393 4725 623Q4725 839 4775 1002Q4825 1165 4911 1274Q4997 1384 5113 1439Q5229 1495 5360 1495Q5447 1495 5518 1478Q5590 1462 5642 1430Q5694 1399 5722 1352Q5751 1306 5751 1247Q5751 1220 5742 1190Q5733 1161 5714 1136Q5696 1112 5669 1096Q5642 1081 5606 1081Q5574 1081 5556 1095Q5539 1109 5530 1132Q5522 1155 5519 1184Q5517 1214 5516 1245Q5515 1276 5511 1305Q5508 1335 5497 1358Q5487 1381 5467 1395Q5447 1409 5411 1409ZM5820 512Q5820 643 5858 741Q5896 840 5959 906Q6023 972 6107 1005Q6191 1038 6283 1038Q6375 1038 6459 1007Q6543 977 6606 914Q6670 851 6708 754Q6746 658 6746 526Q6746 395 6708 294Q6670 193 6606 124Q6543 55 6459 19Q6375 -16 6283 -16Q6191 -16 6107 17Q6023 51 5959 117Q5896 183 5858 282Q5820 381 5820 512ZM6435 522Q6435 602 6429 676Q6424 751 6408 809Q6392 867 6362 901Q6332 936 6283 936Q6234 936 6204 899Q6174 863 6158 803Q6142 744 6137 668Q6132 592 6132 512Q6132 432 6137 355Q6142 279 6158 219Q6174 159 6204 122Q6234 86 6283 86Q6332 86 6362 124Q6392 162 6408 224Q6424 286 6429 364Q6435 442 6435 522ZM7521 498Q7521 624 7509 699Q7498 775 7479 814Q7460 854 7437 866Q7414 879 7390 879Q7361 879 7338 863Q7316 848 7299 828Q7283 808 7271 788Q7260 768 7252 758L7252 90Q7252 77 7248 58Q7244 40 7228 23Q7213 7 7182 -5Q7152 -16 7099 -16Q7046 -16 7015 -4Q6985 9 6969 26Q6953 43 6949 61Q6945 79 6945 90L6945 862Q6945 891 6931 912Q6918 934 6886 934Q6869 934 6857 928Q6845 922 6831 911L6810 936Q6833 955 6861 973Q6890 992 6923 1006Q6956 1020 6994 1029Q7032 1038 7074 1038Q7139 1038 7175 1016Q7211 995 7228 965Q7245 935 7248 902Q7252 870 7252 848Q7289 901 7336 943Q7355 961 7378 978Q7402 995 7428 1008Q7455 1022 7484 1030Q7514 1038 7545 1038Q7613 1038 7665 1012Q7718 986 7754 925Q7790 864 7809 763Q7828 663 7828 514Q7828 369 7802 262Q7776 155 7734 80Q7692 5 7639 -43Q7586 -90 7532 -117Q7478 -144 7428 -155Q7379 -165 7343 -166L7332 -125Q7362 -118 7387 -103Q7413 -88 7434 -59Q7455 -30 7471 14Q7487 59 7498 126Q7510 193 7515 284Q7521 376 7521 498ZM8623 498Q8623 624 8611 699Q8600 775 8581 814Q8562 854 8539 866Q8516 879 8492 879Q8463 879 8440 863Q8418 848 8401 828Q8385 808 8373 788Q8362 768 8354 758L8354 90Q8354 77 8350 58Q8346 40 8330 23Q8315 7 8284 -5Q8254 -16 8201 -16Q8148 -16 8117 -4Q8087 9 8071 26Q8055 43 8051 61Q8047 79 8047 90L8047 862Q8047 891 8033 912Q8020 934 7988 934Q7971 934 7959 928Q7947 922 7933 911L7912 936Q7935 955 7963 973Q7992 992 8025 1006Q8058 1020 8096 1029Q8134 1038 8176 1038Q8241 1038 8277 1016Q8313 995 8330 965Q8347 935 8350 902Q8354 870 8354 848Q8391 901 8438 943Q8457 961 8480 978Q8504 995 8530 1008Q8557 1022 8586 1030Q8616 1038 8647 1038Q8715 1038 8767 1012Q8820 986 8856 925Q8892 864 8911 763Q8930 663 8930 514Q8930 369 8904 262Q8878 155 8836 80Q8794 5 8741 -43Q8688 -90 8634 -117Q8580 -144 8530 -155Q8481 -165 8445 -166L8434 -125Q8464 -118 8489 -103Q8515 -88 8536 -59Q8557 -30 8573 14Q8589 59 8600 126Q8612 193 8617 284Q8623 376 8623 498ZM9790 692L9395 459Q9395 427 9404 389Q9414 352 9432 314Q9450 276 9476 241Q9503 207 9537 180Q9572 153 9614 137Q9656 121 9706 121Q9741 121 9771 129Q9801 137 9827 151Q9853 165 9877 183Q9901 202 9925 223L9950 199Q9927 168 9891 131Q9855 94 9804 61Q9753 29 9685 7Q9617 -14 9530 -14Q9443 -14 9360 17Q9278 49 9214 112Q9150 175 9111 269Q9073 363 9073 489Q9073 580 9096 656Q9119 732 9158 793Q9198 854 9250 900Q9303 946 9361 976Q9419 1007 9479 1022Q9540 1038 9596 1038Q9670 1038 9725 1022Q9780 1006 9816 979Q9853 952 9871 916Q9889 881 9889 842Q9889 795 9862 757Q9835 720 9790 692ZM9385 541L9596 662Q9609 670 9617 677Q9626 685 9631 695Q9636 706 9638 721Q9641 737 9641 760Q9641 785 9635 815Q9630 846 9617 873Q9604 900 9584 918Q9564 936 9536 936Q9500 936 9474 914Q9449 893 9432 859Q9416 825 9406 781Q9397 738 9392 694Q9387 650 9386 609Q9385 569 9385 541ZM10720 692Q10689 692 10668 701Q10647 711 10634 727Q10621 743 10615 762Q10609 782 10609 803Q10609 830 10612 855Q10616 880 10613 900Q10611 920 10598 932Q10585 944 10552 944Q10517 944 10478 924Q10439 904 10407 861Q10375 818 10354 750Q10333 683 10333 588Q10333 483 10352 396Q10372 310 10411 249Q10450 188 10508 154Q10566 121 10644 121Q10679 121 10710 129Q10742 137 10770 151Q10798 165 10823 183Q10849 202 10873 223L10898 199Q10875 168 10839 131Q10803 94 10752 61Q10701 29 10633 7Q10565 -14 10478 -14Q10391 -14 10308 19Q10226 53 10162 117Q10098 181 10059 272Q10021 364 10021 481Q10021 572 10044 648Q10067 725 10106 787Q10146 849 10198 896Q10251 943 10309 974Q10367 1006 10427 1022Q10488 1038 10544 1038Q10618 1038 10673 1021Q10728 1004 10764 976Q10801 948 10819 911Q10837 875 10837 836Q10837 807 10829 780Q10822 754 10807 734Q10793 715 10771 703Q10749 692 10720 692ZM11512 952L11357 952L11357 213Q11357 160 11377 139Q11397 119 11432 119Q11459 119 11480 134Q11501 149 11516 168Q11534 189 11547 217L11578 203Q11563 171 11542 133Q11522 95 11488 62Q11454 30 11402 8Q11351 -14 11273 -14Q11229 -14 11188 -1Q11148 12 11116 40Q11085 68 11066 110Q11047 152 11047 211L11047 952L10935 952L10935 1024Q10963 1024 11013 1038Q11063 1053 11115 1087Q11168 1121 11213 1178Q11258 1235 11277 1319L11357 1319L11357 1024L11520 1024Q11600 1024 11600 1051Q11600 1061 11590 1064Q11580 1068 11567 1073Q11555 1079 11545 1089Q11535 1099 11535 1122Q11535 1150 11552 1166Q11570 1182 11598 1182Q11616 1182 11629 1174Q11643 1167 11652 1154Q11661 1142 11665 1126Q11670 1110 11670 1094Q11670 1029 11632 990Q11595 952 11512 952ZM12895 1317L12895 131Q12895 54 12854 19Q12814 -16 12731 -16Q12647 -16 12607 19Q12567 54 12567 131L12567 1327Q12567 1382 12491 1382Q12436 1382 12379 1365Q12323 1349 12277 1320Q12232 1292 12203 1252Q12174 1213 12174 1167Q12174 1135 12182 1116Q12191 1097 12202 1087Q12213 1078 12224 1075Q12236 1073 12241 1073Q12266 1073 12282 1081Q12298 1090 12311 1099Q12324 1109 12335 1117Q12347 1126 12362 1126Q12374 1126 12387 1120Q12401 1115 12412 1103Q12424 1091 12432 1071Q12440 1052 12440 1024Q12440 984 12424 955Q12409 926 12384 906Q12360 887 12328 877Q12297 868 12266 868Q12218 868 12179 884Q12141 901 12114 930Q12087 959 12073 998Q12059 1037 12059 1081Q12059 1164 12090 1227Q12121 1291 12177 1337Q12234 1383 12313 1413Q12392 1444 12488 1462Q12584 1480 12693 1487Q12803 1495 12921 1495Q13207 1495 13354 1385Q13501 1276 13501 1071Q13501 971 13474 894Q13448 817 13403 761Q13359 706 13301 671Q13243 637 13181 622Q13119 607 13056 610Q12994 613 12940 633L12954 676Q13029 653 13077 674Q13126 696 13153 751Q13181 806 13191 890Q13202 974 13202 1075Q13202 1151 13186 1213Q13170 1276 13142 1320Q13115 1364 13078 1388Q13042 1413 13001 1413Q12969 1413 12948 1403Q12928 1394 12916 1379Q12905 1365 12900 1348Q12896 1332 12895 1317ZM13965 827Q14003 885 14046 932Q14064 952 14085 971Q14106 990 14128 1005Q14151 1020 14175 1029Q14199 1038 14223 1038Q14274 1038 14303 1007Q14332 977 14332 922Q14332 888 14326 856Q14321 825 14305 780L14277 780Q14271 811 14249 831Q14227 852 14185 852Q14154 852 14124 840Q14094 829 14065 812Q14037 795 14011 775Q13986 755 13965 737L13965 88Q13965 75 13961 57Q13957 39 13941 23Q13926 7 13895 -5Q13865 -16 13812 -16Q13759 -16 13728 -4Q13698 9 13682 26Q13666 43 13662 61Q13658 79 13658 90L13658 862Q13658 891 13644 912Q13631 934 13599 934Q13582 934 13570 928Q13558 922 13544 911L13523 936Q13546 955 13574 973Q13603 992 13636 1006Q13669 1020 13707 1029Q13745 1038 13787 1038Q13830 1038 13860 1026Q13891 1015 13910 996Q13930 978 13941 955Q13952 932 13957 908Q13963 885 13964 863Q13965 842 13965 827ZM14395 512Q14395 643 14433 741Q14471 840 14534 906Q14598 972 14682 1005Q14766 1038 14858 1038Q14950 1038 15034 1007Q15118 977 15181 914Q15245 851 15283 754Q15321 658 15321 526Q15321 395 15283 294Q15245 193 15181 124Q15118 55 15034 19Q14950 -16 14858 -16Q14766 -16 14682 17Q14598 51 14534 117Q14471 183 14433 282Q14395 381 14395 512ZM15010 522Q15010 602 15004 676Q14999 751 14983 809Q14967 867 14937 901Q14907 936 14858 936Q14809 936 14779 899Q14749 863 14733 803Q14717 744 14712 668Q14707 592 14707 512Q14707 432 14712 355Q14717 279 14733 219Q14749 159 14779 122Q14809 86 14858 86Q14907 86 14937 124Q14967 162 14983 224Q14999 286 15004 364Q15010 442 15010 522Z" fill="#603f83" style=""></path></g></g></g></svg>